# xmcd
#
# Track frame offsets:
# 150
# 12230
# 21884
# 32698
# 41324
# 52694
# 65450
# 75559
# 84911
# 96035
# 104703
# 115363
#
# Disc length: 1669 seconds
#
#
# Revision: 0
# Processed by: cddbd v1.4PL0 Copyright (c) Steve Scherf et al.
# Submitted via: FreeRIP 2.00 
#
DISCID=8606830c
DTITLE=Eddy Arnold - That's How Much I Love You
DYEAR=1900
DGENRE=Country
TTITLE0=That's How Much I Love You
TTITLE1=The Mills Of The Gods
TTITLE2=Wabash Cannonball
TTITLE3=How Did You Know
TTITLE4=Lovin' Up A Storm
TTITLE5=No One To Cry To
TTITLE6=Kisses Sweeter Than Wine
TTITLE7=What A Way To Die
TTITLE8=Singing The Blues
TTITLE9=Take A Tiger By The Tail
TTITLE10=Do You Miss Me
TTITLE11=Ready Willing And Able
EXTD=
EXTT0=
EXTT1=
EXTT2=
EXTT3=
EXTT4=
EXTT5=
EXTT6=
EXTT7=
EXTT8=
EXTT9=
EXTT10=
EXTT11=
PLAYORDER=
